<svg xmlns="http://www.w3.org/2000/svg" width="2560" height="602" viewBox="0 0 2560 602" version="1.1"><path d="M 2195 225.500 L 2195 448 2241 448 L 2287 448 2287 400.145 L 2287 352.290 2315.061 325.895 C 2330.494 311.378, 2343.432 299.397, 2343.811 299.271 C 2344.190 299.144, 2368.582 332.444, 2398.015 373.271 L 2451.529 447.500 2505.765 447.759 C 2535.594 447.901, 2559.999 447.676, 2559.997 447.259 C 2559.995 446.841, 2525.120 400.626, 2482.497 344.557 C 2439.874 288.489, 2405 242.275, 2405 241.860 C 2405 241.444, 2439.838 208.343, 2482.417 168.302 C 2524.996 128.261, 2559.871 94.938, 2559.917 94.250 C 2559.983 93.263, 2547.344 93.007, 2499.750 93.033 L 2439.500 93.065 2363.500 164.117 L 2287.500 235.168 2287.246 119.084 L 2286.992 3 2240.996 3 L 2195 3 2195 225.500 M 1045 111.990 C 1045 122.995, 1044.641 132, 1044.203 132 C 1043.765 132, 1041.627 130.179, 1039.454 127.953 C 1025.759 113.928, 997.089 100.835, 969.178 95.860 C 952.719 92.925, 922.780 92.231, 906.305 94.400 C 823.515 105.304, 763.568 165.514, 753.902 247.471 C 752.466 259.647, 753.255 288.374, 755.331 299.500 C 764.538 348.837, 789.364 387.535, 828.850 414.099 C 875.986 445.810, 942.432 454.077, 996.500 434.956 C 1012.150 429.422, 1026.630 420.877, 1037.634 410.682 C 1041.007 407.557, 1044.098 405, 1044.503 405 C 1045.971 405, 1044.286 449.147, 1042.557 456 C 1037.379 476.523, 1022.593 494.735, 1002.700 505.092 C 984.713 514.457, 968.876 517.589, 944.041 516.695 C 904.568 515.274, 878.163 506.065, 852.357 484.719 L 842.950 476.939 812.475 506.171 C 795.714 522.248, 782 535.747, 782 536.168 C 782 537.542, 802.216 554.911, 811.178 561.236 C 839.042 580.902, 870.846 593.563, 908.594 600.016 C 918.563 601.720, 924.854 602, 953.224 602 C 984.437 602, 986.922 601.864, 998.520 599.515 C 1036.606 591.804, 1066.904 575.531, 1092.128 549.239 C 1116.909 523.408, 1131.375 490.598, 1135.001 452 C 1135.741 444.132, 1135.990 385.550, 1135.791 266.500 L 1135.500 92.500 1090.250 92.240 L 1045 91.980 1045 111.990 M 1362 92.566 C 1360.625 92.802, 1355.450 93.479, 1350.500 94.071 C 1305.243 99.486, 1260.076 123.269, 1232.379 156.270 C 1202.708 191.624, 1188.706 234.908, 1192.005 281.072 C 1194.252 312.511, 1203.712 340.433, 1220.778 366 C 1230.271 380.222, 1249.983 400.394, 1263.971 410.200 C 1311.796 443.727, 1376.167 454.154, 1437.500 438.308 C 1481.348 426.980, 1519.264 400.262, 1542.870 364.061 C 1575.601 313.864, 1579.820 248.072, 1553.840 193 C 1537.774 158.944, 1508.140 129.362, 1473 112.303 C 1455.673 103.891, 1436.970 98.041, 1415.986 94.471 C 1406.965 92.936, 1367.883 91.557, 1362 92.566 M 1625.676 92.657 C 1625.304 93.029, 1625 183.412, 1625 293.508 C 1625 509.395, 1625.257 498.622, 1619.914 506.421 C 1617.085 510.549, 1612.492 513.705, 1606.331 515.753 C 1602.323 517.085, 1596.091 517.370, 1569.752 517.429 L 1538.004 517.500 1538.002 559.750 L 1538 602 1577.449 602 C 1620.265 602, 1632.418 601.074, 1649.748 596.493 C 1689.980 585.858, 1710.076 562.415, 1717.691 517.233 C 1719.396 507.117, 1719.500 494.594, 1719.500 299.500 L 1719.500 92.500 1672.926 92.240 C 1647.311 92.097, 1626.048 92.285, 1625.676 92.657 M 1939.500 93.684 C 1847.537 101.669, 1782.047 167.196, 1776.099 257.176 C 1769.859 351.558, 1827.031 423.446, 1923 441.893 C 1945.371 446.193, 1970.334 447.750, 1990 446.072 C 2034.211 442.299, 2071.846 427.167, 2104.012 400.230 C 2112.937 392.756, 2125.739 379.406, 2124.842 378.508 C 2124.619 378.286, 2110.277 368.227, 2092.971 356.154 L 2061.504 334.204 2058.002 337.126 C 2037.173 354.508, 2022.257 362.508, 2002.064 367.128 C 1989.175 370.076, 1962.490 370.796, 1948.925 368.562 C 1907.259 361.699, 1872.940 334.460, 1868.479 304.711 L 1867.773 300 2004.508 300 L 2141.243 300 2140.726 275.250 C 2140.171 248.644, 2139.038 239.390, 2134.024 220.500 C 2126.060 190.501, 2111.722 165.541, 2090.068 143.984 C 2076.293 130.271, 2063.793 121.185, 2047.500 113.043 C 2020.432 99.516, 1989.491 92.748, 1956.644 93.168 C 1949.415 93.261, 1941.700 93.493, 1939.500 93.684 M 1943.286 170.099 C 1920.066 172.803, 1896.719 183.934, 1885.206 197.790 C 1877.526 207.032, 1872.004 218.304, 1870.061 228.705 L 1869.258 233 1958.629 233 C 2030.213 233, 2048 232.747, 2048 231.730 C 2048 228.551, 2043.573 214.979, 2040.901 209.966 C 2034.014 197.044, 2023.684 187.470, 2008.500 179.936 C 1989.861 170.687, 1967.374 167.295, 1943.286 170.099 M 1357 176.876 C 1321.893 184.538, 1296.477 209.051, 1287.793 243.623 C 1284.954 254.927, 1284.637 280.297, 1287.195 291.517 C 1297.689 337.541, 1336.522 365.367, 1386.500 362.674 C 1423.186 360.698, 1451.185 342.814, 1465.950 311.928 C 1473.021 297.139, 1474.382 290.239, 1474.421 269 C 1474.457 248.952, 1473.860 245.384, 1467.855 229.791 C 1460.390 210.406, 1443.557 192.568, 1424.630 183.986 C 1410.245 177.464, 1402.104 175.782, 1383 175.384 C 1368.686 175.087, 1363.953 175.358, 1357 176.876 M 932 177.018 C 907.109 180.476, 888.760 189.054, 873.410 204.408 C 856.828 220.995, 849.521 238.229, 848.358 263.500 C 846.971 293.636, 856.717 320.600, 875.116 337.534 C 906.919 366.805, 967.621 370.154, 1006.620 344.791 C 1024.866 332.924, 1035.619 318.136, 1039.435 299.660 C 1041.619 289.088, 1041.640 245.339, 1039.465 236.114 C 1033.457 210.627, 1007.517 187.639, 975.500 179.428 C 964.268 176.547, 943.622 175.403, 932 177.018" stroke="none" fill="#040404" fill-rule="evenodd"/><path d="M 279 1.606 C 224.166 6.448, 177.830 22.422, 133.600 51.735 C 67.256 95.701, 20.999 164.225, 5.507 241.485 C -1.760 277.728, -1.937 320.966, 5.035 357 C 23.125 450.503, 84.841 529.785, 172.500 572.133 C 189.134 580.169, 195.552 582.004, 206.960 581.988 C 222.853 581.966, 235.183 576.851, 246.457 565.605 C 257.990 554.100, 263.058 542.043, 263.113 525.976 C 263.169 509.982, 257.962 497.115, 246.891 485.890 C 240.939 479.855, 238.477 478.255, 225.543 472.021 C 195.572 457.574, 175.371 442.358, 157.145 420.500 C 120.292 376.303, 105.663 318.092, 117.438 262.499 C 135.762 175.984, 212.145 114.034, 300.526 114.005 C 330.415 113.995, 356.369 119.830, 382.773 132.496 C 434.430 157.277, 471.918 204.350, 484.376 260.079 C 498.021 321.120, 480.367 384.338, 437.149 429.195 C 419.040 447.990, 405.323 457.885, 380.500 470.060 C 371.700 474.376, 362.006 479.887, 358.958 482.305 C 344.780 493.555, 336.432 514.491, 338.938 532.511 C 342.943 561.302, 366.427 582.041, 394.960 581.985 C 405.280 581.965, 413.216 579.896, 426.345 573.801 C 489.932 544.282, 539.445 496.782, 570.504 435.500 C 602.776 371.824, 611.087 298.175, 593.903 228.139 C 577.935 163.056, 538.470 103.329, 484.453 62.496 C 443.192 31.306, 396.610 11.833, 344.500 3.992 C 330.982 1.957, 291.361 0.514, 279 1.606 M 287.176 189.074 C 239.692 195.237, 201.507 230.236, 190.767 277.441 C 187.877 290.140, 187.877 311.860, 190.767 324.559 C 203.614 381.024, 255.879 419.072, 312.490 413.171 C 365.471 407.648, 406.475 368.181, 413.965 315.500 C 418.889 280.867, 405.137 242.905, 378.849 218.567 C 354.240 195.782, 320.106 184.801, 287.176 189.074" stroke="none" fill="#04ac0c" fill-rule="evenodd"/></svg>